<?xml version="1.0" standalone="no"?><!DOCTYPE svg PUBLIC "-//W3C//DTD SVG 1.1//EN" "http://www.w3.org/Graphics/SVG/1.1/DTD/svg11.dtd"><svg t="1770806252225" class="icon" viewBox="0 0 1024 1024" version="1.1" xmlns="http://www.w3.org/2000/svg" p-id="1837" xmlns:xlink="http://www.w3.org/1999/xlink" width="200" height="200"><path d="M863.573333 233.386667A144.64 144.64 0 0 0 789.333333 213.333333h-32a187.733333 187.733333 0 0 0-145.92-71.253333A184.746667 184.746667 0 0 0 426.666667 309.76a42.666667 42.666667 0 0 0 28.16 42.666667 213.333333 213.333333 0 0 1 112.64 94.293333 42.666667 42.666667 0 0 0 37.12 21.333333h99.413333a149.76 149.76 0 0 1 74.666667 20.053334 120.32 120.32 0 0 1 15.36 10.24 42.666667 42.666667 0 0 0 25.173333 8.106666 38.4 38.4 0 0 0 11.946667 0 148.906667 148.906667 0 0 0 32.426666-272.64z" fill="#8AC8FB" p-id="1838"></path><path d="M904.96 497.92A234.24 234.24 0 0 0 704 384h-75.093333a282.026667 282.026667 0 0 0-35.413334-42.666667A298.666667 298.666667 0 1 0 384 853.333333h320a235.093333 235.093333 0 0 0 234.666667-234.666666 228.693333 228.693333 0 0 0-33.706667-120.746667z" fill="#BBDEFB" p-id="1839"></path></svg>